<svg xmlns="http://www.w3.org/2000/svg" width="126.808" height="46.523" viewBox="0 0 126.808 46.523">
  <g id="graphic_ttl" transform="translate(-90.81 -343.224)">
    <path id="パス_762" data-name="パス 762" d="M121.938,379.457c-1.335-.278-1.93-1.7-2.751-5.114-1.547.766-3.049,1.478-4.522,2.248a30.744,30.744,0,0,1-14.735,4c-7.129-.093-10.795-5.28-8.381-12.015,3.235-9.023,8.5-16.662,16.427-22.2,3.747-2.617,9.654-3.687,14.14-1.566,2.055.971,5.138,4.8,5.124,7.872,0,.751-.433,2.112-1.576,2.091-.969-.171-1.066-1.686-1.185-2.256-.539-2.572-4.179-5.4-5.379-5.79a9.944,9.944,0,0,0-8.9,1.6A41.977,41.977,0,0,0,93.955,369.98c-1.789,5.147.76,8.32,6.175,8.111,6.9-.266,15.914-4.858,18.495-6.892s3.661-3.762,4.18-6.146c.237-.5.021-1.18-.727-.98-4.047.985-8.081,2.036-12.151,2.915a6.424,6.424,0,0,1-3.6-.1c-1.162-.483-1.231-1.864.183-2.162,5.426-1.142,10.866-2.335,16.363-2.99,3.675-.437,4.356,1.206,2.751,4.729-.7,1.533-2.334,3.5-2.831,5.105a7.061,7.061,0,0,0,.367,6.095A1.2,1.2,0,0,1,121.938,379.457Z" transform="translate(0 -0.253)" fill="#8b8b8b"/>
    <path id="パス_763" data-name="パス 763" d="M180.445,391.278a52.33,52.33,0,0,1,5.745-3.759c.838-.414,2.2-.031,3.212.316.343.118.521,1.268.414,1.883-.045.256-1.039.328-1.589.519-1.169.4-2.55.561-3.454,1.3a21.4,21.4,0,0,0-6.31,9.128c-.38.981-.611,2.4-2.172,1.82-1.423-.525-1.184-1.643-.883-2.933.881-3.776,1.505-7.611,2.346-11.4.233-1.048-.271-2.991,1.7-2.69,1.76.269,1.416,1.946,1.313,3.253C180.7,389.557,180.559,390.393,180.445,391.278Z" transform="translate(-47.078 -23.552)" fill="#8b8b8b"/>
    <path id="パス_764" data-name="パス 764" d="M232.839,411.311c1.275-5.88,2.654-12.241,4.036-18.6a1.67,1.67,0,0,1,.148-.413c.913-1.739,5.928-2.652,8.139-1.484,2.366,1.25,3.105,3.864,1.662,6.408a13.83,13.83,0,0,1-7.189,5.869,3.832,3.832,0,0,0-2.805,3.467q-.35,3.818-.862,7.619a8.6,8.6,0,0,1-.686,1.834c-.659-.373-1.637-.594-1.9-1.154A13.577,13.577,0,0,1,232.839,411.311Zm5.3-10.82.9.52c1.655-1.764,3.425-3.44,4.9-5.344.467-.6.148-1.814.189-2.747-1.236.191-3.22-.012-3.57.648A43.516,43.516,0,0,0,238.141,400.491Z" transform="translate(-79.253 -26.262)" fill="#8b8b8b"/>
    <path id="パス_765" data-name="パス 765" d="M213.088,403.909c-1.613,1.985-3.029,1.207-4.766-2.5-1.421.9-2.809,1.825-4.251,2.664-1.486.865-3.045,1.2-4.485-.081a3.029,3.029,0,0,1-.442-4.371,40.247,40.247,0,0,1,5.578-6.684c2.8-2.437,5.663-2.164,8.473.351a2.887,2.887,0,0,1,.4,2.446,32.8,32.8,0,0,1-1.716,3.8C211.129,401.282,210.4,403.078,213.088,403.909Zm-11.74-1.711c4.127-.59,9.539-6,8.522-8.521C205.916,393.986,201.7,398.2,201.348,402.2Z" transform="translate(-60.043 -26.795)" fill="#8b8b8b"/>
    <path id="パス_766" data-name="パス 766" d="M272.413,362.177c3.513-.677,5,.686,4.741,3.993q-.186,2.415-.446,4.825c-.192,1.75.534,2.078,2.074,1.51a32.721,32.721,0,0,1,3.273-.835,4.548,4.548,0,0,1-4.969,3.156,3.236,3.236,0,0,1-2.787-3.646c.05-2.081.2-4.16.336-6.728a19.226,19.226,0,0,0-7.313,7.954c-1.474,3.014-2.679,6.159-4.048,9.225-.141.316-.72.759-.886.683-.54-.246-1.394-.716-1.385-1.081a9.068,9.068,0,0,1,.673-3.368c.914-2.08,2.077-4.049,3.079-6.092,1.992-4.061,4.13-8.064,5.862-12.234,1.744-4.2,3.075-8.564,4.567-12.863.215-.619.223-1.32.495-1.9a9.342,9.342,0,0,1,1.126-1.546c.5.573,1.292,1.089,1.415,1.733a5.205,5.205,0,0,1-.435,2.559c-1.622,4.485-3.3,8.95-4.963,13.422C272.7,361.262,272.6,361.6,272.413,362.177Z" transform="translate(-94.969 0)" fill="#8b8b8b"/>
    <path id="パス_767" data-name="パス 767" d="M314.048,400.533c-.4-.743-1.208-1.53-1.131-2.22.248-2.236,1.563-7.487,2.116-9.673.078-.309,1.206-.72,1.341-.584a13.1,13.1,0,0,1,1.562,2.189c.049.076-.082.267-.129.4-.747,2.192-2.287,7.424-3.034,9.616Z" transform="translate(-123.934 -25.001)" fill="#8b8b8b"/>
    <path id="パス_768" data-name="パス 768" d="M320.712,377.723c-.639-.309-1.5-.456-1.865-.963a11.79,11.79,0,0,1-1.094-2.694c.719.044,1.777-.19,2.086.188a11.606,11.606,0,0,1,1.312,2.888Z" transform="translate(-126.635 -17.193)" fill="#8b8b8b"/>
    <path id="パス_769" data-name="パス 769" d="M333.165,401.221c-1.6-.994-3.671-1.6-4.37-2.934-.572-1.089.118-3.27.91-4.56a16.28,16.28,0,0,1,9.255-7.058c2.743-.862,6.7.251,8.224,2.331.307.42.177,1.159.248,1.751-.537-.026-1.311.17-1.575-.111-2.91-3.1-6.075-1.914-8.8-.131a27.436,27.436,0,0,0-5.643,5.652c-.844,1.016-.288,2.063,1.2,1.887a34.2,34.2,0,0,0,5.17-.981c3.11-.869,6.174-1.9,9.265-2.841a5.2,5.2,0,0,1,1.93-.368,2.037,2.037,0,0,1,1.3.873c.113.174-.343,1.025-.684,1.139C344.252,397.657,338.886,399.373,333.165,401.221Z" transform="translate(-132.679 -24.079)" fill="#8b8b8b"/>
  </g>
</svg>
