<svg xmlns="http://www.w3.org/2000/svg" width="104.336" height="43.729" viewBox="0 0 104.336 43.729">
  <g id="illust_ttl" transform="translate(-41.869 -587.348)">
    <path id="パス_779" data-name="パス 779" d="M65.98,590.887c-1.521.293-3.037.615-4.564.865a3.929,3.929,0,0,1-2.1.057,3.189,3.189,0,0,1-1.339-1.708c-.079-.21.729-1.064,1.193-1.121,4.985-.61,9.978-1.174,14.981-1.617a14.993,14.993,0,0,1,3.462.5l.093.74c-.548.323-2.137,1.679-2.653,1.634-5.241-.457-6.9,2.36-8.958,6.142-4.111,7.55-8.484,15.228-11.315,21.334-.942,2.063-2.235,3.947-3.389,5.993,2.176.324,4.158.544,6.1.955.557.118,1,.79,1.492,1.209a8.9,8.9,0,0,1-1.738.986,13.311,13.311,0,0,1-1.751.055c-3.443.545-6.878,1.14-10.321,1.688a5.2,5.2,0,0,1-2.248.1,1.9,1.9,0,0,1-1.054-1.424,1.73,1.73,0,0,1,1.035-1.344c4.021-.422,5.686-3.38,7.406-6.449,4.244-7.575,4.931-10.226,9.383-17.68,2.406-4.028,2.825-4.946,5.461-8.837.356-.526.719-1.048,1.078-1.571Z" transform="translate(0)" fill="#8b8b8b"/>
    <path id="パス_780" data-name="パス 780" d="M209.008,660.815c2.8,1.637,5.06-.155,7.864-.843a8.547,8.547,0,0,1-1.61-1.213c-2.259-2.728-2.113-6.051.851-8.019a17.585,17.585,0,0,1,6.714-2.318,4.268,4.268,0,0,1,4.464,2.59,2.655,2.655,0,0,1-.4,2.494c-1.1.866-1.546-.245-2.113-1.125a2.578,2.578,0,0,0-1.934-1.046,7.65,7.65,0,0,0-5.532,2.953,1.972,1.972,0,0,0,.53,3.3c1.11.66,2.439.96,3.521,1.654.625.4.954,1.265,1.416,1.921a10.058,10.058,0,0,1-1.737.987c-3.633,1.211-7.29,2.347-10.925,3.554-1.187.394-2.242-.078-2.3-1.085C207.815,664.62,207.03,661.518,209.008,660.815Z" transform="translate(-100.67 -37.052)" fill="#8b8b8b"/>
    <path id="パス_781" data-name="パス 781" d="M163.937,662.078l9.194-5.778.66.593a18.757,18.757,0,0,1-2.195,3.325,26.113,26.113,0,0,1-4.423,3.512c-3.616,2.29-6.215.912-6.575-3.368-.037-.445-.073-.889-.155-1.877-.771.872-1.214,1.451-1.735,1.948-1.6,1.524-3.16,3.1-4.864,4.5a3.195,3.195,0,0,1-5.108-3.669c1.156-3.041,2.521-6.005,3.882-8.964a17.633,17.633,0,0,1,1.845-2.981,2.3,2.3,0,0,1,1.358-1,8.466,8.466,0,0,1,2.293.484c-.182.674-.157,1.543-.579,1.99-3.09,3.267-4.259,7.494-6.142,11.362l.383.387a7.729,7.729,0,0,0,1.572-1.135q4.8-5.769,9.508-11.614c.625-.778,1.094-1.86,2.271-1.13a2.054,2.054,0,0,1,.821,2.841c-1.015,2.593-1.767,5.293-2.54,7.974a7.794,7.794,0,0,0-.027,2.081Z" transform="translate(-64.715 -37.019)" fill="#8b8b8b"/>
    <path id="パス_782" data-name="パス 782" d="M267.918,650.433a18.986,18.986,0,0,1-4,.438c-.639-.072-1.189-.924-1.78-1.425.448-.477.812-1.149,1.363-1.387a9.648,9.648,0,0,1,3.027-.763,4.734,4.734,0,0,0,4.584-3.514,2.232,2.232,0,0,1,1.758-1.227,1.67,1.67,0,0,1,1.428,2.314,7.145,7.145,0,0,0-.13.865,10.9,10.9,0,0,1,3.385-.343c.911.2,2.217,1,2.367,1.732.264,1.292-1.092,1.27-2.087,1.316-.715.033-1.427.2-2.141.212-2.917.036-4.484,1.5-5.466,4.257-1.328,3.724-3.081,7.3-4.73,10.9-.181.4-1.069.894-1.3.764-.6-.343-1.46-1.042-1.42-1.535a13.471,13.471,0,0,1,1.011-4.3C265,656.01,266.431,653.389,267.918,650.433Z" transform="translate(-133.75 -33.519)" fill="#8b8b8b"/>
    <path id="パス_783" data-name="パス 783" d="M94.939,637.387c-1.74-.011-2.343-1.372-1.454-2.754,1.516-2.359,3.271-4.571,4.7-6.979,4.862-8.2,9.63-16.452,14.412-24.7.456-.785.779-2.022,1.877-1.2a2.639,2.639,0,0,1,.518,2.488c-1.594,3.215-3.332,6.368-5.185,9.443-4.515,7.494-9.115,14.938-13.7,22.387A8.754,8.754,0,0,1,94.939,637.387Z" transform="translate(-31.095 -8.584)" fill="#8b8b8b"/>
    <path id="パス_784" data-name="パス 784" d="M139.651,606.8c-.248.518-.357.822-.526,1.089-4.162,6.616-8.386,13.194-12.467,19.859-1.449,2.368-4.944,8.368-6.3,10.8-.3.54-1.127.787-1.712,1.169-.4-.729-1.193-1.5-1.119-2.177a7.85,7.85,0,0,1,1.292-3.026c3.707-6.056,9.9-15.478,13.647-21.51,1.445-2.326,2.876-4.662,4.408-6.93.284-.421,1.158-.871,1.511-.722C138.93,605.584,139.26,606.321,139.651,606.8Z" transform="translate(-45.937 -10.915)" fill="#8b8b8b"/>
  </g>
</svg>
