<svg xmlns="http://www.w3.org/2000/svg" width="173.35" height="46.523" viewBox="0 0 173.35 46.523">
  <g id="webdesign_ttl" transform="translate(-57.597 -461.938)">
    <path id="パス_770" data-name="パス 770" d="M239.742,494.961c2.074-.029,3.056-.5,3.848-2.181,2.523-5.346,7.167-8.006,12.811-9.031a3.635,3.635,0,0,1,4.069,2.153c.831,1.7-.235,2.893-1.5,3.775-3.273,2.28-6.629,4.373-10.946,3.557-.432-.082-1.307.287-1.373.582-.121.54.041,1.556.382,1.708a5.476,5.476,0,0,0,2.962.593c2.857-.5,5.665-1.274,8.5-1.914a4.207,4.207,0,0,1,2.5.1,6.4,6.4,0,0,1-.891,1.028,18.55,18.55,0,0,1-10.661,3.521,4.144,4.144,0,0,1-2.567-.612c-1.974-1.556-3.731-1.7-6.155-.688-2.107.879-3.459-1.026-4.287-3.226-1.927,1.511-3.7,2.956-5.533,4.313a7.622,7.622,0,0,1-2.871,1.63,3.782,3.782,0,0,1-2.924-.757,2.831,2.831,0,0,1-.364-2.724,107,107,0,0,1,7.1-9.1,3.966,3.966,0,0,1,4.96-.815c1.422.73,2.257.208,2.915-.992,1.719-3.133,3.383-6.3,5.143-9.4a33.314,33.314,0,0,1,3.168-4.86c.422-.51,1.608-.389,2.445-.557.035.787.371,1.729.056,2.335-2.819,5.417-5.8,10.751-8.625,16.164A56.577,56.577,0,0,0,239.742,494.961Zm-11.114.84.474.552,7.2-6.378-.585-.624C232.459,490.521,230.469,493.079,228.629,495.8Zm28.131-8.274-.507-1.063-6.258,3.064.472.981Z" transform="translate(-91.946 -5.023)" fill="#8b8b8b"/>
    <path id="パス_771" data-name="パス 771" d="M60.913,496.562c4.613-.958,7.537-3.666,10.152-6.456,3.911-4.172,7.382-8.755,11.033-13.169.332-.4.52-1.079.925-1.231a22.888,22.888,0,0,1,3.1-.743c-.017,1.072.417,2.576-.127,3.143-2.83,2.954-3.827,6.561-4.277,10.416-.081.695.1,1.951.429,2.052a3,3,0,0,0,2.382-.329,19.623,19.623,0,0,0,3.742-3.6c2.515-3.312,4.786-6.809,7.324-10.1.458-.594,1.72-.569,2.611-.829.131,1.079.775,2.522.309,3.176-2.77,3.889-5.785,7.6-8.75,11.353a12.548,12.548,0,0,1-1.688,1.633c-4.476,3.863-8.538,2.707-10.366-3.318a43.379,43.379,0,0,1-3.777,3.563c-3.119,2.315-6.112,5-9.589,6.58-4.382,1.993-7.441-.493-6.616-5.175,1.918-10.889,5.462-21.193,12.2-30.17.938-1.249,2.055-2.056,3.474-.743,1.576,1.459-.185,2.057-.79,3.1a141.4,141.4,0,0,0-7.793,14.354c-1.748,4.028-2.576,8.463-3.706,12.745A20.081,20.081,0,0,0,60.913,496.562Z" transform="translate(0 0)" fill="#8b8b8b"/>
    <path id="パス_772" data-name="パス 772" d="M361.72,508.078c2.257-.411,4.143-.845,6.053-1.045.568-.059,1.205.539,1.811.836-.472.482-.9,1.326-1.422,1.389-5.431.663-9.066,3.065-10.276,8.845-.365,1.742-2.2,3.342-3.687,4.647-2.588,2.279-6.063,1.085-7.058-2.22a8.258,8.258,0,0,1,4.777-9.843,4.185,4.185,0,0,1,1.263-.439c4.622-.1,5.661-3.452,6.492-7.22-.449-.134-.9-.3-1.371-.406-2.63-.615-4.051-3.073-2.794-5.411a22.944,22.944,0,0,1,3.93-5.341c2.088-2.081,4.193-2.327,5.576-1.162a6.358,6.358,0,0,1,1.367,7.54c-1.479,2.654-2.812,5.39-4.177,8.107A10.545,10.545,0,0,0,361.72,508.078Zm-11.245,13.157c3.659-1.865,4.774-5.17,5.976-8.612C351.2,512.626,348.438,516.552,350.475,521.234ZM358.3,499.3c2.622-.585,5.407-3.526,5.409-5.712C360.733,494.745,358.876,496.706,358.3,499.3Z" transform="translate(-159.302 -15.464)" fill="#8b8b8b"/>
    <path id="パス_773" data-name="パス 773" d="M186.47,483.808c3.376-2.089,6.151-1.629,7.987.88,1.9,2.6,1.486,5.67-1.752,7.653a22.962,22.962,0,0,1-8.081,2.872c-3.1.516-4.608-1.526-3.612-4.516,1.835-5.51,7.23-18.922,9.261-24.363.2-.54,1.118-.814,1.7-1.212.367.706,1.169,1.523,1.022,2.1-.458,1.788-4.692,11.433-5.351,13.173C187.286,481.344,186.981,482.316,186.47,483.808Zm-2.273,8.6.455.5a12.564,12.564,0,0,0,7.139-3.557c1-1.045,1.592-2.421.173-3.706s-3.959-.29-4.864.906C185.6,488.539,184.2,490.655,184.2,492.413Z" transform="translate(-67.808 -1.754)" fill="#8b8b8b"/>
    <path id="パス_774" data-name="パス 774" d="M397.595,499.446a40.56,40.56,0,0,1,3.582-2.045c2.06-.9,3.766.226,3.851,2.454.017.446-.063.894-.07,1.341-.049,3.373.8,3.986,3.928,3.015,1.335-.414,2.734-.624,4.388-.989a7.129,7.129,0,0,1-6.311,4.426c-4-.268-4.385-3.669-5.456-6.872-2.917,2.107-5.727,4.131-8.528,6.166-.6.435-1.132,1.207-1.766,1.29a3.3,3.3,0,0,1-2.32-.677,2.025,2.025,0,0,1-.044-1.933c2.342-3.542,4.754-7.042,7.272-10.46.365-.5,1.415-.487,2.149-.711a7.948,7.948,0,0,1,.585,2.481A8.7,8.7,0,0,1,397.595,499.446Z" transform="translate(-182.328 -17.909)" fill="#8b8b8b"/>
    <path id="パス_775" data-name="パス 775" d="M314.175,507.431c-1.741-1.746-3.29-3.113-4.607-4.676-1.223-1.451-.791-2.935.546-4.153,3.114-2.838,9.39-2.8,12.44.068a1.813,1.813,0,0,1,.569.68c.218.775.348,1.575.512,2.365-.78-.167-1.842-.069-2.292-.546-2.221-2.355-4.781-2.185-7.427-1.181-.723.275-1.695,1.116-1.705,1.712-.012.667.814,1.551,1.5,1.982,1.189.746,2.626,1.1,3.825,1.83,1.831,1.121,1.89,2.7-.018,3.464a82.444,82.444,0,0,1-9.957,3.166c-.788.2-1.842-.624-2.774-.977l.078-.863Z" transform="translate(-136.149 -19.034)" fill="#8b8b8b"/>
    <path id="パス_776" data-name="パス 776" d="M153.01,506.408c-.725.317-1.938.5-2.071.978a4.161,4.161,0,0,0,.223,3.118c.367.532,1.914.619,2.77.362a31.343,31.343,0,0,0,3.78-1.9,5.068,5.068,0,0,1,1.6-.171c-.054.547.069,1.2-.191,1.622-1.216,1.959-5.7,3.732-7.972,3.25a4.256,4.256,0,0,1-3.5-4.311,11.483,11.483,0,0,1,7.359-10.274c2.154-.693,4.88.228,5.455,1.841s-.677,3.923-2.785,4.779a43.461,43.461,0,0,1-4.448,1.3Zm4.474-4.487L157,501l-4.158,2.253.367.7A3.859,3.859,0,0,0,157.484,501.921Z" transform="translate(-49.597 -20.33)" fill="#8b8b8b"/>
    <path id="パス_777" data-name="パス 777" d="M350.87,508.908c-1.693,2.84-3.175,5.407-4.778,7.9-.166.258-1.218.276-1.552.015a1.908,1.908,0,0,1-.691-1.6q1.465-3.971,3.248-7.819a1.779,1.779,0,0,1,1.611-.633A13.023,13.023,0,0,1,350.87,508.908Z" transform="translate(-157.647 -24.668)" fill="#8b8b8b"/>
    <path id="パス_778" data-name="パス 778" d="M350.969,491.024c2.366-.948,4.911.646,4.753,2.7-.022.293-.367.783-.587.8a2.324,2.324,0,0,1-1.607-.295A38.9,38.9,0,0,1,350.969,491.024Z" transform="translate(-161.586 -15.865)" fill="#8b8b8b"/>
  </g>
</svg>
