<svg xmlns="http://www.w3.org/2000/svg" width="296.635" height="123.265" viewBox="0 0 296.635 123.265">
  <g id="works_ttl" transform="translate(-761.365 -214.801)">
    <g id="グループ_24" data-name="グループ 24" transform="translate(51.297 -14.038)">
      <g id="ペノパラアイコン" transform="translate(893 233.46)">
        <path id="パス_756" data-name="パス 756" d="M113.666,79.617c.231-2.217-.693-1.755-.693-1.755s-.092-3.649,0-5.265-2.494-13.3-3.325-16.4-3.372-6.882-4.526-8.868a16.094,16.094,0,0,0-4.434-5.5c.37-.739.508-2.217-.416-2.817,1.016-.231.785-1.57.554-2.817s-2.494-1.293-2.817-1.293-.416-.139-.462-.785a3.279,3.279,0,0,0,2.309-1.247c-.139.231-.369,1.478,2.309-.046,11.547-6.6-5.4-22.678-7.528-24.294,1.709-.554,2.263-2.171,2.494-4.619S97.039.5,94.268.452s-6.559,3.6-6.928,3.464a41.014,41.014,0,0,0-7.667-1.478c.508-.462,1.062-2.078-1.108-2.4a2.032,2.032,0,0,0-2.4,1.755c-1.709,0-7.159.416-7.852,1.755-.37-.046-5.912-.97-15.242,2.263S34.917,18.465,34.917,18.465a36.719,36.719,0,0,0-5.081,6.05c-2.586,3.787.6,11.593,3.048,13.256s4.711,3.6,5.912,4.2-.139.092,3.372,0,4.111-.785,5.727-2.032c-.323,1.386-1.755,2.171-3.695,3.556s1.432,2.4,1.432,2.4c3.556.139,7.99,1.94,9.838,2.817.323,1.847,2.171,2.171,1.755,3.233-1.386,2.032-2.217,8.96-2.586,9.653s-2.032,1.478-2.771,2.4a10.913,10.913,0,0,1-3.6,2.725.37.37,0,0,0-.277.231,5.173,5.173,0,0,0,0,1.339,7.038,7.038,0,0,1-3.741.785,5.219,5.219,0,0,0-3-1.386l.277-3.741c0-.046,0-.092-.046-.092h-.185v-.185a.045.045,0,0,0-.046-.046h-.462v.231h-.277l-.831,4.064a6.159,6.159,0,0,0-3.048,1.57c-1.062,1.2.462,2.91.462,2.91a1.709,1.709,0,0,0,.185,1.339c.231.277,1.155.785,1.478.647l-.139.878.323,1.894L13.948,71.626,8.868,50.565a1.617,1.617,0,0,0-1.062,1.986c.369,1.57,4.388,18.706,4.388,18.706h-.277a.462.462,0,0,0-.554.231v.785a.785.785,0,0,0,.554.739l.462.139-2.356,6.882H9.33v1.432H.369A.369.369,0,0,0,0,81.834v3.048s0,.277.369.277H3.233v3.972a.508.508,0,0,0,.508.508h1.8v29.005h4.85l.139-28.959H42.862V110.7c-.924-.416-3.6-.924-4.157,0a3.733,3.733,0,0,0,0,3.141c.369.924,3.464,2.817,4.111,3.095v1.709H47.9v-3.372c2.032-.647,1.894-3.418,2.725-4.342s10.993-3,16.165-6.281a21.015,21.015,0,0,1,8.868-.739V108.3h2.4v1.986h2.309l-4.665,8.36h4.111l4.018-8.36h3.464v8.36H91.4v-8.406H94.5l4.249,8.406h4.111l-4.711-8.406h2.771v-1.986H102.3l.878-.785v-3.695s1.386-1.524,3.972-4.111,2.4-10.577,2.4-10.577a1.986,1.986,0,0,0,1.663-.785C112,87.376,113.389,81.834,113.666,79.617ZM47.8,94.443v-4.8h.785a.739.739,0,0,0,.739-.739V85.113H50.99a.647.647,0,0,0,.647-.647V81.788a.37.37,0,0,0-.369-.37h-6v-1.2l-.647-.416V78.37L39.49,77.307l1.062-1.478a10.273,10.273,0,0,0,4.573.139c2.263-.739,7.575,1.386,7.575,1.386l.323,1.617,1.755.416s-2.032,6.1,1.062,9.053C53.346,90.332,50.806,90.794,47.8,94.443Z" transform="translate(0 0)" fill="#a3936b"/>
      </g>
    </g>
    <g id="グループ_25" data-name="グループ 25" transform="translate(671.224 104.171) rotate(-5)">
      <path id="パス_757" data-name="パス 757" d="M115.291,183.218c-5.731,6.866-10.573,12.9-15.692,18.7a72.023,72.023,0,0,1-8.041,7.377c-2.838,2.364-6.108,2.229-9.277.766a7.065,7.065,0,0,1-4.33-7.753c.8-5.238,1.561-10.642,3.5-15.516,5.141-12.944,12.44-24.753,20.684-35.969.5-.681,1.084-1.673,1.749-1.781a19.378,19.378,0,0,1,4.151.152c-.227,1.122-.093,2.541-.736,3.32C96.841,165.2,87.846,178.7,83.486,194.786a33.765,33.765,0,0,0-1.029,8.286c-.056,3.972,2.486,5.545,5.7,3.153a51.655,51.655,0,0,0,10.559-9.983c7.518-9.985,14.473-20.392,21.791-30.531.645-.895,2.829-1.789,3.383-1.4a4.7,4.7,0,0,1,1.668,3.638c-.116,1.465-1.448,2.791-1.885,4.285-1.554,5.318-3.043,10.661-4.324,16.05-.232.977.631,2.213.988,3.33,1.182-.421,2.71-.508,3.491-1.317,6.748-6.989,13.3-14.163,20.1-21.1.71-.725,2.6-.295,3.943-.4.081,1.21.724,2.937.158,3.549-6.108,6.6-12.4,13.038-18.661,19.5a25.062,25.062,0,0,1-2.709,2.448c-2.588,1.988-5.312,3.7-8.675,1.806-3.3-1.863-3.079-5.269-3.333-8.372C114.562,186.59,114.961,185.414,115.291,183.218Z" transform="translate(0 -4.604)" fill="#333"/>
      <path id="パス_758" data-name="パス 758" d="M251.823,177.079c2.71.936,4.178,1.421,5.63,1.95,6.738,2.459,13.485,4.893,20.191,7.433a8.324,8.324,0,0,1,3.317,2.157c.513.6.635,2.435.226,2.726-.816.582-2.7,1.035-3.131.58-5.086-5.316-12.12-6.461-18.567-8.637-8.111-2.737-8.515-2.21-9.008,6.6a17.428,17.428,0,0,1-.288,3.989c-.279.928-1.251,1.647-1.914,2.46-.728-.963-2.066-1.925-2.069-2.891-.01-3.018.974-6.085.683-9.047-.588-5.988,2.121-11.081,3.658-16.5,3.249-11.462,6.447-22.94,9.8-34.372.224-.764,1.575-1.2,2.4-1.787.629,1.233,2.01,2.652,1.758,3.667-1.139,4.6-2.793,9.059-4.159,13.6-1.82,6.053-3.556,12.131-5.29,18.21a12.185,12.185,0,0,0-.021,2.473c3.5-1.813,6.435-3.42,9.445-4.866a78.988,78.988,0,0,1,8.383-3.6c1.036-.358,2.388.2,3.6.343-.739,1.061-1.24,2.577-2.256,3.108-5.817,3.043-11.783,5.8-17.633,8.781C255.166,174.175,254,175.392,251.823,177.079Z" transform="translate(-45.009 0)" fill="#333"/>
      <path id="パス_759" data-name="パス 759" d="M176.951,207.321c-2.607-.539-6.143-.812-9.308-2.039-3.975-1.542-5.014-4.879-2.9-8.546A37.3,37.3,0,0,1,183.492,180.4a9.548,9.548,0,0,1,11.037,2.542c2.712,3.419,2.413,10.292-.322,14.861-.9,1.507-.758,3.624-1.6,5.187A5.689,5.689,0,0,1,189.4,205.8C185.607,206.548,181.714,206.785,176.951,207.321Zm-2.063-4.106.018.249c3.189-.387,6.389-.7,9.558-1.21a3.338,3.338,0,0,0,2.309-1.362,75.555,75.555,0,0,0,4.209-11.248c1.133-4.622-1.005-6.494-5.537-4.981a27.879,27.879,0,0,0-16.336,13.512c-1.564,2.915-.7,4.559,2.563,5.017A23.282,23.282,0,0,0,174.888,203.215Z" transform="translate(-22.942 -12.807)" fill="#333"/>
      <path id="パス_760" data-name="パス 760" d="M319.754,187.2c3.11-6.011,1.846-8.089-4.784-8.006a31.273,31.273,0,0,0-8.245,1.187c-3.869,1.123-4.492,3.457-1.927,6.464,1.171,1.372,2.8,2.341,4.045,3.664,1.728,1.844,3.813,3.614,4.8,5.836,1.827,4.105-.06,8.2-4.481,9.565a28.019,28.019,0,0,1-9.235.771c-.847-.034-1.618-1.959-2.424-3.016a27.734,27.734,0,0,1,3.157-.381c1.2-.015,2.586.6,3.555.173,2.216-.974,5.132-1.99,5.995-3.822.552-1.172-1.823-4.018-3.293-5.773-1.933-2.309-4.582-4.051-6.351-6.456-2.6-3.539-1.739-7.626,2.312-9.025a50.281,50.281,0,0,1,14.818-2.929c5.495-.145,8.375,4.312,7.112,9.44C324.165,187.515,322.668,188.52,319.754,187.2Z" transform="translate(-58.722 -11.686)" fill="#333"/>
      <path id="パス_761" data-name="パス 761" d="M235.7,187.414c-8,.76-10.932,6.48-12.827,13.221a11.336,11.336,0,0,1-1.665,4.109c-.785.958-2.613,2.094-3.4,1.765-1-.417-1.448-2.215-2.038-3.463a1.554,1.554,0,0,1,.16-1.185c3.738-6.995,2.859-14.455,2.446-21.922-.074-1.332,1.256-2.742,1.938-4.117,1.251,1.529,3.025,2.885,3.6,4.635.547,1.665-.16,3.742-.349,6.034C233.267,182.586,234.43,182.692,235.7,187.414Z" transform="translate(-36.853 -11.786)" fill="#333"/>
    </g>
  </g>
</svg>
