<svg xmlns="http://www.w3.org/2000/svg" width="300.548" height="34.341" viewBox="0 0 300.548 34.341">
  <g id="logo" transform="translate(192.5 21.995)">
    <g id="グループ_3" data-name="グループ 3" transform="translate(-192.5 -21.995)">
      <g id="グループ_1" data-name="グループ 1" transform="translate(200.314 1.953)">
        <path id="パス_1" data-name="パス 1" d="M580.468,11.285v1.786c0,.152,0,.988-.312.988h-4.75c-.277-.038-.347.3-.347.57,0,.988.1,4.521.069,4.9s0,.418.416.418h4.2c.208,0,.243.038.243.266v2.432c0,.114.035.228-.173.228h-4.334c-.208,0-.243.038-.243.342-.035,1.368.035,4.711,0,4.977s-.069.456.139.456h4.507c.243,0,.173.152.208.342s0,2.014-.035,2.546h-4.577c-.208,0-.208.114-.208.494s.035,5.4,0,5.623,0,.3-.208.3h-5.444c-.139,0-.139-.114-.139-.342s.069-19.833.069-19.947-.139-.076-.208-.076-.1.076-.139.152l-1.838,5.015c-.069.228-.1.19-.277.152l-5.617-1.026c-.139-.038-.139-.038-.1-.228a30.65,30.65,0,0,0,3.016-6.839c1.144-3.951,2.011-8.473,2.081-8.777s.034-.342.416-.342h4.473c.208,0,.243.152.208.342s-.624,4.141-.659,4.407-.035.266.243.266h9.049C580.537,10.867,580.468,10.981,580.468,11.285Z" transform="translate(-548.613 -5.7)" fill="#9a7551"/>
        <path id="パス_2" data-name="パス 2" d="M530.858,23.021s-1.56,3.381-1.63,3.5-.139.152-.347.038l-4.126-2.812c-.139-.076-.173-.152-.069-.3s4.091-4.673,5.409-9.347c.728-2.622,1.734-7.6,1.8-7.751s.139-.342.624-.342h5.062c.485,0,.485.152.381.57s-2.566,9.954-2.566,9.954c.035,2.052.173,20.9.173,21.239s.069.494-.416.494H531.17c-.416,0-.382-.152-.382-.608S530.858,23.173,530.858,23.021Z" transform="translate(-524.625 -5.896)" fill="#9a7551"/>
      </g>
      <path id="パス_3" data-name="パス 3" d="M433.507,11.669h1.04c.069,0,.1-.038.139-.3s.208-4.713.208-4.865,0-.266.243-.3h4.611c.139,0,.139.114.139.228s-.035,4.6,0,4.865,0,.3.173.3h5.132c.069,0,.069.038.069.114v3.611c0,.076,0,.076-.139.114h-4.993c-.277,0-.277-.038-.277.3-.035,1.368-.035,3.763,0,3.915s.069.19.277.19h4.923c.139,0,.139.038.139.228s-.035,4.143-.069,5.131c-.069,1.824-.1,7.45-.208,8.4a.352.352,0,0,1-.277.228h-2.115l-1.664-.076c-.381,0-.451-.038-.416-.456s.069-2.7.069-3.079.069-.418.243-.38l.8-.076c.208,0,.208-.076.208-.228s.069-4.181.1-4.979,0-.38-.243-.38h-1.56c-.1,0-.069.076-.069.152-.069,1.786-.069,13.379-.069,13.683s0,.3-.312.3h-4.542c-.277,0-.416-.114-.416-.418.035-1.064,0-13.417,0-13.531s.035-.19-.069-.19l-1.768.076c-.1,0-.1.038-.1.152s-.173,8.248-.173,8.932-.069.418-.347.418h-3.5c-.208,0-.312-.076-.312-.342.035-2.014.035-12.771.035-12.923s.035-.342.277-.342l5.548-.114c.173,0,.208-.038.208-.19s.069-3.649.069-3.877.1-.3-.173-.266-1.456-.076-2.08-.038c-.069,0-.139.152-.173.266-.381,1.292-.243.988-.347,1.178a.274.274,0,0,1-.312.19h-3.849c-.173,0-.1-.076-.1-.19s2.011-8.172,2.739-10.6a.352.352,0,0,1,.381-.3h3.329c.243,0,.277.076.243.228-.173,1.14-.763,5.017-.763,5.131S433.368,11.669,433.507,11.669Z" transform="translate(-265.06 -4.069)" fill="#9a7551"/>
      <path id="パス_4" data-name="パス 4" d="M485.29,37.76c0-.266.035-3.609.035-3.951s.1-.342.347-.38,5.374,0,5.617-.038.243-.114.243-.266-.069-25.91.035-26.9c.035-.19.069-.228.312-.228H496c.208,0,.277.114.277.342s.035,31-.035,31.571-.139.3-.347.342-9.882,0-10.194,0A.4.4,0,0,1,485.29,37.76Z" transform="translate(-301.331 -3.943)" fill="#9a7551"/>
      <path id="パス_5" data-name="パス 5" d="M487.35,7.841c0,.208-.173,15.429-.173,15.533s0,.243-.208.243l-4.23.069c-.139,0-.139-.035-.139-.277s.243-15.568.243-15.637a.1.1,0,0,1,.1-.1h4.265C487.35,7.633,487.35,7.633,487.35,7.841Z" transform="translate(-300.023 -5.021)" fill="#9a7551"/>
      <path id="パス_6" data-name="パス 6" d="M39.6,39.129c.139.139.139.347-.1.347l-8.009.069c-.139,0-.243,0-.52-.277S16.512,23.354,16.339,23.215a.243.243,0,0,0-.347.035c-.624.555-8.148,8.7-8.807,9.431-.069.069-.277.069-.277.069H.147c-.208,0-.243-.173-.1-.277s12.482-15.464,13.21-16.053a1.11,1.11,0,0,1,.971-.52h3.745c.451,0,.624.381.9.659Z" transform="translate(0.04 -7.589)" fill="#9a7551"/>
      <path id="パス_7" data-name="パス 7" d="M127.92,37.344c.139-.27,1.04-3.928,1.214-4.159s.035-.308.243-.27a19.134,19.134,0,0,0,5.3-1.04c3.051-.963,9.327-3.2,13.557-22.029.035-.27.069-.347.381-.347h6.9c.173,0,.243.154.208.308s-2.878,13.518-5.374,18.524-9.188,7.895-11.3,8.319a70.467,70.467,0,0,1-10.991,1.117.207.207,0,0,1-.222-.15A.245.245,0,0,1,127.92,37.344Z" transform="translate(-79.078 -6.229)" fill="#9a7551"/>
      <path id="パス_8" data-name="パス 8" d="M623,42.33V37.046h10.818l-1.04-18.84h-8.564V12.5h24.444v5.706H640.2l-.971,18.84h10.644V42.33Z" transform="translate(-382.296 -8.189)" fill="#9a7551"/>
      <path id="パス_9" data-name="パス 9" d="M73.971,5.744a5.131,5.131,0,0,1,1.976.069,5.339,5.339,0,0,1,1.942.8,5.721,5.721,0,0,0,1.7.763A3.5,3.5,0,0,1,81.91,8.865a5.825,5.825,0,0,1,.347,2.392,1.525,1.525,0,0,1-.277.867.728.728,0,0,1-.451.208l-.9.069a5.79,5.79,0,0,0-1.04.069l-2.566.589-2.912.728H73.9a4.091,4.091,0,0,1-2.947-1.144,3.411,3.411,0,0,1-.624-3.259l.243-1.179H69.359c-.243,0-.277-.1-.277-.139a.659.659,0,0,1,.277-.659l.243-.1a1,1,0,0,1,.52.069,1.838,1.838,0,0,0,.936.1,1.283,1.283,0,0,0,.693-.381,4.022,4.022,0,0,1,2.184-1.352h0m-.208-.971A4.993,4.993,0,0,0,70.989,6.4l-.173.1c-.312.069-.763-.312-1.456-.173a1.838,1.838,0,0,0-.555.243c-1.144.693-1.11,2.67.485,2.67C68.319,14.1,72.861,15,74.04,14.828h.243c1.248-.243,4.473-1.179,5.513-1.387s1.283,0,1.942-.139a1.868,1.868,0,0,0,1.491-1.942,6.8,6.8,0,0,0-.451-2.843A4.4,4.4,0,0,0,79.8,6.438c-1.283-.312-1.734-1.248-3.641-1.63a6.137,6.137,0,0,0-2.392-.069Z" transform="translate(-44.416 -3.063)" fill="#9a7551"/>
      <path id="パス_10" data-name="パス 10" d="M70.136,12.895c-.867-1.283.1-2.635.381-3.433a8.055,8.055,0,0,1,2.808-3.779c1.456-.832,2.739-.936,5.617.139-2.5.139-4.785,2.046-5.166,3.849-.173.832,1.075,2.254,2.046,2.392-.139.208-1.318.277-1.318.277s.139.485.9.52C73.881,13.692,71,14.143,70.136,12.895Z" transform="translate(-45.574 -3.314)" fill="#9a7551"/>
      <g id="グループ_2" data-name="グループ 2" transform="translate(271.562 2.057)">
        <path id="パス_11" data-name="パス 11" d="M730.9,26.53h-4.438v1.384h-8.252V25.568h22.121V16.3H713.56V32.145L712,44.951h4.82l1.491-12.576v-.961h3.745v4.73l-1.664,8.768h5.825l1.248-7.807V36.26H735.2l-.243,8.615,5.548.077V32.76H727.36V31.414h13.557v-3.5H730.9Zm-12.69-6.73h17.648v2.5H718.206Z" transform="translate(-712 -12.729)" fill="#9a7551"/>
        <rect id="長方形_1" data-name="長方形 1" width="28.154" height="2.372" transform="translate(0.832)" fill="#9a7551"/>
      </g>
      <path id="パス_12" data-name="パス 12" d="M291.419,1.084a5.027,5.027,0,0,1,1.976.069,5.235,5.235,0,0,1,1.907.763,5.617,5.617,0,0,0,1.664.728,3.507,3.507,0,0,1,2.288,1.491,5.721,5.721,0,0,1,.347,2.323,1.491,1.491,0,0,1-.277.832.728.728,0,0,1-.451.208l-.867.069a5.686,5.686,0,0,0-1.04.069L294.4,8.3l-2.878.728h-.208a4.057,4.057,0,0,1-2.878-1.144,3.479,3.479,0,0,1-.624-3.19l.243-1.179h-1.179c-.243,0-.277-.1-.277-.139a.659.659,0,0,1,.277-.659l.243-.1a1.006,1.006,0,0,1,.485.069,1.8,1.8,0,0,0,.936.1,1.248,1.248,0,0,0,.693-.381,3.953,3.953,0,0,1,2.184-1.318h0m-.208-.936a4.923,4.923,0,0,0-2.67,1.595l-.139.1c-.312.069-.763-.312-1.422-.173a1.8,1.8,0,0,0-.555.208c-1.144.659-1.075,2.6.485,2.635-1.005,4.785,3.467,5.686,4.611,5.513h.243c1.213-.243,4.4-1.144,5.444-1.352s1.248,0,1.907-.139A1.868,1.868,0,0,0,300.607,6.6a6.692,6.692,0,0,0-.416-2.808,4.319,4.319,0,0,0-2.947-2.046C295.961,1.43,295.51.6,293.638.217a6.033,6.033,0,0,0-2.323-.069Z" transform="translate(-177.22 -0.067)" fill="#9a7551"/>
      <path id="パス_13" data-name="パス 13" d="M287.436,7.991c-.867-1.248.1-2.566.381-3.363A8.122,8.122,0,0,1,290.591.883c1.422-.832,2.7-.936,5.513.139-2.462.139-4.715,2.011-5.062,3.779-.173.832,1.075,2.219,2.046,2.358-.139.208-1.318.243-1.318.243a.862.862,0,0,0,.867.52C291.146,8.788,288.3,9.239,287.436,7.991Z" transform="translate(-178.324 -0.178)" fill="#9a7551"/>
      <path id="パス_14" data-name="パス 14" d="M228.158,9.077,225.7,25c-.763,5.116-1.526,7.117-3.4,9.271a8.759,8.759,0,0,1-5.79,2.962l-.208-6.809c2.427-.769,2.912-1.846,3.537-6.386l2.184-15Zm10.471,0s4.161,19.542,5.444,28.5h-6.588C235.924,25.5,234.676,16.963,232.631,9Z" transform="translate(-133.828 -5.903)" fill="#9a7551"/>
      <path id="パス_15" data-name="パス 15" d="M360.345,16.86c-.139,10.118-.936,13.452-3.814,16.595s-6.172,3.756-14.632,3.833h-5.86V31.308h5.131c11.268.153,12.829-.881,13.314-8.853H335v-5.6ZM358.924,7.7v5.557H336.248V7.7Z" transform="translate(-207.389 -5.053)" fill="#9a7551"/>
    </g>
  </g>
</svg>
